<svg xmlns="http://www.w3.org/2000/svg" viewBox="0 0 100 100" preserveAspectRatio="xMidYMid" width="205" height="205" style="shape-rendering: auto; display: block; background: rgb(255, 255, 255);" xmlns:xlink="http://www.w3.org/1999/xlink"><g><g transform="rotate(0 50 50)">
  <rect fill="#000000" height="5" width="8" ry="2.5" rx="4" y="20.5" x="46">
    <animate repeatCount="indefinite" begin="-0.5129419191919191s" dur="0.5208333333333333s" keyTimes="0;1" values="1;0" attributeName="opacity"></animate>
  </rect>
</g><g transform="rotate(5.454545454545454 50 50)">
  <rect fill="#000000" height="5" width="8" ry="2.5" rx="4" y="20.5" x="46">
    <animate repeatCount="indefinite" begin="-0.505050505050505s" dur="0.5208333333333333s" keyTimes="0;1" values="1;0" attributeName="opacity"></animate>
  </rect>
</g><g transform="rotate(10.909090909090908 50 50)">
  <rect fill="#000000" height="5" width="8" ry="2.5" rx="4" y="20.5" x="46">
    <animate repeatCount="indefinite" begin="-0.4971590909090909s" dur="0.5208333333333333s" keyTimes="0;1" values="1;0" attributeName="opacity"></animate>
  </rect>
</g><g transform="rotate(16.363636363636363 50 50)">
  <rect fill="#000000" height="5" width="8" ry="2.5" rx="4" y="20.5" x="46">
    <animate repeatCount="indefinite" begin="-0.48926767676767674s" dur="0.5208333333333333s" keyTimes="0;1" values="1;0" attributeName="opacity"></animate>
  </rect>
</g><g transform="rotate(21.818181818181817 50 50)">
  <rect fill="#000000" height="5" width="8" ry="2.5" rx="4" y="20.5" x="46">
    <animate repeatCount="indefinite" begin="-0.4813762626262626s" dur="0.5208333333333333s" keyTimes="0;1" values="1;0" attributeName="opacity"></animate>
  </rect>
</g><g transform="rotate(27.272727272727273 50 50)">
  <rect fill="#000000" height="5" width="8" ry="2.5" rx="4" y="20.5" x="46">
    <animate repeatCount="indefinite" begin="-0.47348484848484845s" dur="0.5208333333333333s" keyTimes="0;1" values="1;0" attributeName="opacity"></animate>
  </rect>
</g><g transform="rotate(32.72727272727273 50 50)">
  <rect fill="#000000" height="5" width="8" ry="2.5" rx="4" y="20.5" x="46">
    <animate repeatCount="indefinite" begin="-0.4655934343434343s" dur="0.5208333333333333s" keyTimes="0;1" values="1;0" attributeName="opacity"></animate>
  </rect>
</g><g transform="rotate(38.18181818181818 50 50)">
  <rect fill="#000000" height="5" width="8" ry="2.5" rx="4" y="20.5" x="46">
    <animate repeatCount="indefinite" begin="-0.45770202020202017s" dur="0.5208333333333333s" keyTimes="0;1" values="1;0" attributeName="opacity"></animate>
  </rect>
</g><g transform="rotate(43.63636363636363 50 50)">
  <rect fill="#000000" height="5" width="8" ry="2.5" rx="4" y="20.5" x="46">
    <animate repeatCount="indefinite" begin="-0.449810606060606s" dur="0.5208333333333333s" keyTimes="0;1" values="1;0" attributeName="opacity"></animate>
  </rect>
</g><g transform="rotate(49.09090909090909 50 50)">
  <rect fill="#000000" height="5" width="8" ry="2.5" rx="4" y="20.5" x="46">
    <animate repeatCount="indefinite" begin="-0.4419191919191919s" dur="0.5208333333333333s" keyTimes="0;1" values="1;0" attributeName="opacity"></animate>
  </rect>
</g><g transform="rotate(54.54545454545455 50 50)">
  <rect fill="#000000" height="5" width="8" ry="2.5" rx="4" y="20.5" x="46">
    <animate repeatCount="indefinite" begin="-0.43402777777777773s" dur="0.5208333333333333s" keyTimes="0;1" values="1;0" attributeName="opacity"></animate>
  </rect>
</g><g transform="rotate(60 50 50)">
  <rect fill="#000000" height="5" width="8" ry="2.5" rx="4" y="20.5" x="46">
    <animate repeatCount="indefinite" begin="-0.4261363636363636s" dur="0.5208333333333333s" keyTimes="0;1" values="1;0" attributeName="opacity"></animate>
  </rect>
</g><g transform="rotate(65.45454545454545 50 50)">
  <rect fill="#000000" height="5" width="8" ry="2.5" rx="4" y="20.5" x="46">
    <animate repeatCount="indefinite" begin="-0.41824494949494945s" dur="0.5208333333333333s" keyTimes="0;1" values="1;0" attributeName="opacity"></animate>
  </rect>
</g><g transform="rotate(70.9090909090909 50 50)">
  <rect fill="#000000" height="5" width="8" ry="2.5" rx="4" y="20.5" x="46">
    <animate repeatCount="indefinite" begin="-0.4103535353535353s" dur="0.5208333333333333s" keyTimes="0;1" values="1;0" attributeName="opacity"></animate>
  </rect>
</g><g transform="rotate(76.36363636363636 50 50)">
  <rect fill="#000000" height="5" width="8" ry="2.5" rx="4" y="20.5" x="46">
    <animate repeatCount="indefinite" begin="-0.40246212121212116s" dur="0.5208333333333333s" keyTimes="0;1" values="1;0" attributeName="opacity"></animate>
  </rect>
</g><g transform="rotate(81.81818181818181 50 50)">
  <rect fill="#000000" height="5" width="8" ry="2.5" rx="4" y="20.5" x="46">
    <animate repeatCount="indefinite" begin="-0.394570707070707s" dur="0.5208333333333333s" keyTimes="0;1" values="1;0" attributeName="opacity"></animate>
  </rect>
</g><g transform="rotate(87.27272727272727 50 50)">
  <rect fill="#000000" height="5" width="8" ry="2.5" rx="4" y="20.5" x="46">
    <animate repeatCount="indefinite" begin="-0.3866792929292929s" dur="0.5208333333333333s" keyTimes="0;1" values="1;0" attributeName="opacity"></animate>
  </rect>
</g><g transform="rotate(92.72727272727273 50 50)">
  <rect fill="#000000" height="5" width="8" ry="2.5" rx="4" y="20.5" x="46">
    <animate repeatCount="indefinite" begin="-0.37878787878787873s" dur="0.5208333333333333s" keyTimes="0;1" values="1;0" attributeName="opacity"></animate>
  </rect>
</g><g transform="rotate(98.18181818181819 50 50)">
  <rect fill="#000000" height="5" width="8" ry="2.5" rx="4" y="20.5" x="46">
    <animate repeatCount="indefinite" begin="-0.3708964646464646s" dur="0.5208333333333333s" keyTimes="0;1" values="1;0" attributeName="opacity"></animate>
  </rect>
</g><g transform="rotate(103.63636363636364 50 50)">
  <rect fill="#000000" height="5" width="8" ry="2.5" rx="4" y="20.5" x="46">
    <animate repeatCount="indefinite" begin="-0.36300505050505044s" dur="0.5208333333333333s" keyTimes="0;1" values="1;0" attributeName="opacity"></animate>
  </rect>
</g><g transform="rotate(109.0909090909091 50 50)">
  <rect fill="#000000" height="5" width="8" ry="2.5" rx="4" y="20.5" x="46">
    <animate repeatCount="indefinite" begin="-0.35511363636363635s" dur="0.5208333333333333s" keyTimes="0;1" values="1;0" attributeName="opacity"></animate>
  </rect>
</g><g transform="rotate(114.54545454545455 50 50)">
  <rect fill="#000000" height="5" width="8" ry="2.5" rx="4" y="20.5" x="46">
    <animate repeatCount="indefinite" begin="-0.3472222222222222s" dur="0.5208333333333333s" keyTimes="0;1" values="1;0" attributeName="opacity"></animate>
  </rect>
</g><g transform="rotate(120 50 50)">
  <rect fill="#000000" height="5" width="8" ry="2.5" rx="4" y="20.5" x="46">
    <animate repeatCount="indefinite" begin="-0.33933080808080807s" dur="0.5208333333333333s" keyTimes="0;1" values="1;0" attributeName="opacity"></animate>
  </rect>
</g><g transform="rotate(125.45454545454545 50 50)">
  <rect fill="#000000" height="5" width="8" ry="2.5" rx="4" y="20.5" x="46">
    <animate repeatCount="indefinite" begin="-0.3314393939393939s" dur="0.5208333333333333s" keyTimes="0;1" values="1;0" attributeName="opacity"></animate>
  </rect>
</g><g transform="rotate(130.9090909090909 50 50)">
  <rect fill="#000000" height="5" width="8" ry="2.5" rx="4" y="20.5" x="46">
    <animate repeatCount="indefinite" begin="-0.3235479797979798s" dur="0.5208333333333333s" keyTimes="0;1" values="1;0" attributeName="opacity"></animate>
  </rect>
</g><g transform="rotate(136.36363636363637 50 50)">
  <rect fill="#000000" height="5" width="8" ry="2.5" rx="4" y="20.5" x="46">
    <animate repeatCount="indefinite" begin="-0.31565656565656564s" dur="0.5208333333333333s" keyTimes="0;1" values="1;0" attributeName="opacity"></animate>
  </rect>
</g><g transform="rotate(141.8181818181818 50 50)">
  <rect fill="#000000" height="5" width="8" ry="2.5" rx="4" y="20.5" x="46">
    <animate repeatCount="indefinite" begin="-0.3077651515151515s" dur="0.5208333333333333s" keyTimes="0;1" values="1;0" attributeName="opacity"></animate>
  </rect>
</g><g transform="rotate(147.27272727272728 50 50)">
  <rect fill="#000000" height="5" width="8" ry="2.5" rx="4" y="20.5" x="46">
    <animate repeatCount="indefinite" begin="-0.29987373737373735s" dur="0.5208333333333333s" keyTimes="0;1" values="1;0" attributeName="opacity"></animate>
  </rect>
</g><g transform="rotate(152.72727272727272 50 50)">
  <rect fill="#000000" height="5" width="8" ry="2.5" rx="4" y="20.5" x="46">
    <animate repeatCount="indefinite" begin="-0.2919823232323232s" dur="0.5208333333333333s" keyTimes="0;1" values="1;0" attributeName="opacity"></animate>
  </rect>
</g><g transform="rotate(158.1818181818182 50 50)">
  <rect fill="#000000" height="5" width="8" ry="2.5" rx="4" y="20.5" x="46">
    <animate repeatCount="indefinite" begin="-0.28409090909090906s" dur="0.5208333333333333s" keyTimes="0;1" values="1;0" attributeName="opacity"></animate>
  </rect>
</g><g transform="rotate(163.63636363636363 50 50)">
  <rect fill="#000000" height="5" width="8" ry="2.5" rx="4" y="20.5" x="46">
    <animate repeatCount="indefinite" begin="-0.2761994949494949s" dur="0.5208333333333333s" keyTimes="0;1" values="1;0" attributeName="opacity"></animate>
  </rect>
</g><g transform="rotate(169.0909090909091 50 50)">
  <rect fill="#000000" height="5" width="8" ry="2.5" rx="4" y="20.5" x="46">
    <animate repeatCount="indefinite" begin="-0.2683080808080808s" dur="0.5208333333333333s" keyTimes="0;1" values="1;0" attributeName="opacity"></animate>
  </rect>
</g><g transform="rotate(174.54545454545453 50 50)">
  <rect fill="#000000" height="5" width="8" ry="2.5" rx="4" y="20.5" x="46">
    <animate repeatCount="indefinite" begin="-0.26041666666666663s" dur="0.5208333333333333s" keyTimes="0;1" values="1;0" attributeName="opacity"></animate>
  </rect>
</g><g transform="rotate(180 50 50)">
  <rect fill="#000000" height="5" width="8" ry="2.5" rx="4" y="20.5" x="46">
    <animate repeatCount="indefinite" begin="-0.2525252525252525s" dur="0.5208333333333333s" keyTimes="0;1" values="1;0" attributeName="opacity"></animate>
  </rect>
</g><g transform="rotate(185.45454545454547 50 50)">
  <rect fill="#000000" height="5" width="8" ry="2.5" rx="4" y="20.5" x="46">
    <animate repeatCount="indefinite" begin="-0.24463383838383837s" dur="0.5208333333333333s" keyTimes="0;1" values="1;0" attributeName="opacity"></animate>
  </rect>
</g><g transform="rotate(190.9090909090909 50 50)">
  <rect fill="#000000" height="5" width="8" ry="2.5" rx="4" y="20.5" x="46">
    <animate repeatCount="indefinite" begin="-0.23674242424242423s" dur="0.5208333333333333s" keyTimes="0;1" values="1;0" attributeName="opacity"></animate>
  </rect>
</g><g transform="rotate(196.36363636363637 50 50)">
  <rect fill="#000000" height="5" width="8" ry="2.5" rx="4" y="20.5" x="46">
    <animate repeatCount="indefinite" begin="-0.22885101010101008s" dur="0.5208333333333333s" keyTimes="0;1" values="1;0" attributeName="opacity"></animate>
  </rect>
</g><g transform="rotate(201.8181818181818 50 50)">
  <rect fill="#000000" height="5" width="8" ry="2.5" rx="4" y="20.5" x="46">
    <animate repeatCount="indefinite" begin="-0.22095959595959594s" dur="0.5208333333333333s" keyTimes="0;1" values="1;0" attributeName="opacity"></animate>
  </rect>
</g><g transform="rotate(207.27272727272728 50 50)">
  <rect fill="#000000" height="5" width="8" ry="2.5" rx="4" y="20.5" x="46">
    <animate repeatCount="indefinite" begin="-0.2130681818181818s" dur="0.5208333333333333s" keyTimes="0;1" values="1;0" attributeName="opacity"></animate>
  </rect>
</g><g transform="rotate(212.72727272727272 50 50)">
  <rect fill="#000000" height="5" width="8" ry="2.5" rx="4" y="20.5" x="46">
    <animate repeatCount="indefinite" begin="-0.20517676767676765s" dur="0.5208333333333333s" keyTimes="0;1" values="1;0" attributeName="opacity"></animate>
  </rect>
</g><g transform="rotate(218.1818181818182 50 50)">
  <rect fill="#000000" height="5" width="8" ry="2.5" rx="4" y="20.5" x="46">
    <animate repeatCount="indefinite" begin="-0.1972853535353535s" dur="0.5208333333333333s" keyTimes="0;1" values="1;0" attributeName="opacity"></animate>
  </rect>
</g><g transform="rotate(223.63636363636363 50 50)">
  <rect fill="#000000" height="5" width="8" ry="2.5" rx="4" y="20.5" x="46">
    <animate repeatCount="indefinite" begin="-0.18939393939393936s" dur="0.5208333333333333s" keyTimes="0;1" values="1;0" attributeName="opacity"></animate>
  </rect>
</g><g transform="rotate(229.0909090909091 50 50)">
  <rect fill="#000000" height="5" width="8" ry="2.5" rx="4" y="20.5" x="46">
    <animate repeatCount="indefinite" begin="-0.18150252525252522s" dur="0.5208333333333333s" keyTimes="0;1" values="1;0" attributeName="opacity"></animate>
  </rect>
</g><g transform="rotate(234.54545454545453 50 50)">
  <rect fill="#000000" height="5" width="8" ry="2.5" rx="4" y="20.5" x="46">
    <animate repeatCount="indefinite" begin="-0.1736111111111111s" dur="0.5208333333333333s" keyTimes="0;1" values="1;0" attributeName="opacity"></animate>
  </rect>
</g><g transform="rotate(240 50 50)">
  <rect fill="#000000" height="5" width="8" ry="2.5" rx="4" y="20.5" x="46">
    <animate repeatCount="indefinite" begin="-0.16571969696969696s" dur="0.5208333333333333s" keyTimes="0;1" values="1;0" attributeName="opacity"></animate>
  </rect>
</g><g transform="rotate(245.45454545454547 50 50)">
  <rect fill="#000000" height="5" width="8" ry="2.5" rx="4" y="20.5" x="46">
    <animate repeatCount="indefinite" begin="-0.15782828282828282s" dur="0.5208333333333333s" keyTimes="0;1" values="1;0" attributeName="opacity"></animate>
  </rect>
</g><g transform="rotate(250.9090909090909 50 50)">
  <rect fill="#000000" height="5" width="8" ry="2.5" rx="4" y="20.5" x="46">
    <animate repeatCount="indefinite" begin="-0.14993686868686867s" dur="0.5208333333333333s" keyTimes="0;1" values="1;0" attributeName="opacity"></animate>
  </rect>
</g><g transform="rotate(256.3636363636364 50 50)">
  <rect fill="#000000" height="5" width="8" ry="2.5" rx="4" y="20.5" x="46">
    <animate repeatCount="indefinite" begin="-0.14204545454545453s" dur="0.5208333333333333s" keyTimes="0;1" values="1;0" attributeName="opacity"></animate>
  </rect>
</g><g transform="rotate(261.8181818181818 50 50)">
  <rect fill="#000000" height="5" width="8" ry="2.5" rx="4" y="20.5" x="46">
    <animate repeatCount="indefinite" begin="-0.1341540404040404s" dur="0.5208333333333333s" keyTimes="0;1" values="1;0" attributeName="opacity"></animate>
  </rect>
</g><g transform="rotate(267.27272727272725 50 50)">
  <rect fill="#000000" height="5" width="8" ry="2.5" rx="4" y="20.5" x="46">
    <animate repeatCount="indefinite" begin="-0.12626262626262624s" dur="0.5208333333333333s" keyTimes="0;1" values="1;0" attributeName="opacity"></animate>
  </rect>
</g><g transform="rotate(272.72727272727275 50 50)">
  <rect fill="#000000" height="5" width="8" ry="2.5" rx="4" y="20.5" x="46">
    <animate repeatCount="indefinite" begin="-0.11837121212121211s" dur="0.5208333333333333s" keyTimes="0;1" values="1;0" attributeName="opacity"></animate>
  </rect>
</g><g transform="rotate(278.1818181818182 50 50)">
  <rect fill="#000000" height="5" width="8" ry="2.5" rx="4" y="20.5" x="46">
    <animate repeatCount="indefinite" begin="-0.11047979797979797s" dur="0.5208333333333333s" keyTimes="0;1" values="1;0" attributeName="opacity"></animate>
  </rect>
</g><g transform="rotate(283.6363636363636 50 50)">
  <rect fill="#000000" height="5" width="8" ry="2.5" rx="4" y="20.5" x="46">
    <animate repeatCount="indefinite" begin="-0.10258838383838383s" dur="0.5208333333333333s" keyTimes="0;1" values="1;0" attributeName="opacity"></animate>
  </rect>
</g><g transform="rotate(289.09090909090907 50 50)">
  <rect fill="#000000" height="5" width="8" ry="2.5" rx="4" y="20.5" x="46">
    <animate repeatCount="indefinite" begin="-0.09469696969696968s" dur="0.5208333333333333s" keyTimes="0;1" values="1;0" attributeName="opacity"></animate>
  </rect>
</g><g transform="rotate(294.54545454545456 50 50)">
  <rect fill="#000000" height="5" width="8" ry="2.5" rx="4" y="20.5" x="46">
    <animate repeatCount="indefinite" begin="-0.08680555555555555s" dur="0.5208333333333333s" keyTimes="0;1" values="1;0" attributeName="opacity"></animate>
  </rect>
</g><g transform="rotate(300 50 50)">
  <rect fill="#000000" height="5" width="8" ry="2.5" rx="4" y="20.5" x="46">
    <animate repeatCount="indefinite" begin="-0.07891414141414141s" dur="0.5208333333333333s" keyTimes="0;1" values="1;0" attributeName="opacity"></animate>
  </rect>
</g><g transform="rotate(305.45454545454544 50 50)">
  <rect fill="#000000" height="5" width="8" ry="2.5" rx="4" y="20.5" x="46">
    <animate repeatCount="indefinite" begin="-0.07102272727272727s" dur="0.5208333333333333s" keyTimes="0;1" values="1;0" attributeName="opacity"></animate>
  </rect>
</g><g transform="rotate(310.90909090909093 50 50)">
  <rect fill="#000000" height="5" width="8" ry="2.5" rx="4" y="20.5" x="46">
    <animate repeatCount="indefinite" begin="-0.06313131313131312s" dur="0.5208333333333333s" keyTimes="0;1" values="1;0" attributeName="opacity"></animate>
  </rect>
</g><g transform="rotate(316.3636363636364 50 50)">
  <rect fill="#000000" height="5" width="8" ry="2.5" rx="4" y="20.5" x="46">
    <animate repeatCount="indefinite" begin="-0.055239898989898985s" dur="0.5208333333333333s" keyTimes="0;1" values="1;0" attributeName="opacity"></animate>
  </rect>
</g><g transform="rotate(321.8181818181818 50 50)">
  <rect fill="#000000" height="5" width="8" ry="2.5" rx="4" y="20.5" x="46">
    <animate repeatCount="indefinite" begin="-0.04734848484848484s" dur="0.5208333333333333s" keyTimes="0;1" values="1;0" attributeName="opacity"></animate>
  </rect>
</g><g transform="rotate(327.27272727272725 50 50)">
  <rect fill="#000000" height="5" width="8" ry="2.5" rx="4" y="20.5" x="46">
    <animate repeatCount="indefinite" begin="-0.039457070707070704s" dur="0.5208333333333333s" keyTimes="0;1" values="1;0" attributeName="opacity"></animate>
  </rect>
</g><g transform="rotate(332.72727272727275 50 50)">
  <rect fill="#000000" height="5" width="8" ry="2.5" rx="4" y="20.5" x="46">
    <animate repeatCount="indefinite" begin="-0.03156565656565656s" dur="0.5208333333333333s" keyTimes="0;1" values="1;0" attributeName="opacity"></animate>
  </rect>
</g><g transform="rotate(338.1818181818182 50 50)">
  <rect fill="#000000" height="5" width="8" ry="2.5" rx="4" y="20.5" x="46">
    <animate repeatCount="indefinite" begin="-0.02367424242424242s" dur="0.5208333333333333s" keyTimes="0;1" values="1;0" attributeName="opacity"></animate>
  </rect>
</g><g transform="rotate(343.6363636363636 50 50)">
  <rect fill="#000000" height="5" width="8" ry="2.5" rx="4" y="20.5" x="46">
    <animate repeatCount="indefinite" begin="-0.01578282828282828s" dur="0.5208333333333333s" keyTimes="0;1" values="1;0" attributeName="opacity"></animate>
  </rect>
</g><g transform="rotate(349.09090909090907 50 50)">
  <rect fill="#000000" height="5" width="8" ry="2.5" rx="4" y="20.5" x="46">
    <animate repeatCount="indefinite" begin="-0.00789141414141414s" dur="0.5208333333333333s" keyTimes="0;1" values="1;0" attributeName="opacity"></animate>
  </rect>
</g><g transform="rotate(354.54545454545456 50 50)">
  <rect fill="#000000" height="5" width="8" ry="2.5" rx="4" y="20.5" x="46">
    <animate repeatCount="indefinite" begin="0s" dur="0.5208333333333333s" keyTimes="0;1" values="1;0" attributeName="opacity"></animate>
  </rect>
</g><g></g></g><!-- [ldio] generated by https://loading.io --></svg>